<svg width="353" height="64" viewBox="0 0 353 64" fill="none" xmlns="http://www.w3.org/2000/svg">
<path d="M251.7 15.8313V63.7213H235.17V0.201263C244.31 0.201263 251.7 7.19126 251.7 15.8213" fill="#27272D" style="fill:#27272D;fill:color(display-p3 0.1529 0.1529 0.1765);fill-opacity:1;"/>
<path d="M253.46 1.99126C277.94 -5.65874 288.87 10.4113 288.87 21.7713C288.87 43.6813 267.5 47.7713 253.68 43.1313C259.25 43.0013 271.71 36.1013 271.71 21.6313C271.71 11.5613 264.89 2.89126 253.46 1.99126Z" fill="#27272D" style="fill:#27272D;fill:color(display-p3 0.1529 0.1529 0.1765);fill-opacity:1;"/>
<path d="M318.68 0.00126648L309.38 17.3013L334.23 63.7213H352.83L318.68 0.00126648Z" fill="#27272D" style="fill:#27272D;fill:color(display-p3 0.1529 0.1529 0.1765);fill-opacity:1;"/>
<path d="M298.25 44.3713C298.25 44.4813 287.99 63.7113 287.99 63.7113C287.99 63.7113 309.64 63.6713 309.64 63.7113C309.64 56.7913 304.87 47.7613 298.26 44.3713" fill="#27272D" style="fill:#27272D;fill:color(display-p3 0.1529 0.1529 0.1765);fill-opacity:1;"/>
<path d="M0 0.00126648L34.14 63.7213L43.45 46.4213L18.6 0.00126648H0Z" fill="#27272D" style="fill:#27272D;fill:color(display-p3 0.1529 0.1529 0.1765);fill-opacity:1;"/>
<path d="M31.14 0.00126648L65.28 63.7213L74.59 46.4213L49.74 0.00126648H31.14Z" fill="#27272D" style="fill:#27272D;fill:color(display-p3 0.1529 0.1529 0.1765);fill-opacity:1;"/>
<path d="M72.51 0.00126648C72.51 6.93127 77.28 15.9513 83.89 19.3513C83.89 19.2413 94.15 0.00126648 94.15 0.00126648C94.15 0.00126648 72.5 0.0612665 72.5 0.00126648" fill="#27272D" style="fill:#27272D;fill:color(display-p3 0.1529 0.1529 0.1765);fill-opacity:1;"/>
<path d="M210.1 33.9913C209.57 33.5313 208.97 33.1213 208.43 32.6713L189.29 17.4913L181.03 10.9513C180.88 10.8213 180.72 10.7013 180.55 10.6013C179.25 9.47126 178.5 7.83126 178.5 6.12126C178.59 2.70126 181.44 0.00126162 184.88 0.0812616C184.88 0.0812616 184.89 0.0812616 184.9 0.0812616C180.47 0.0412616 176.18 1.59126 172.8 4.44126C165.7 10.1513 164.59 20.5013 170.33 27.5613C170.96 28.3413 171.66 29.0613 172.42 29.7113C172.95 30.1813 173.5 30.6213 174.08 31.0313L175.97 32.5213L176.13 32.2713H176.18L175.98 32.5213L182.16 37.4013L201.51 52.7613C201.68 52.8713 201.85 52.9913 202 53.1213C203.28 54.2313 204.03 55.8413 204.04 57.5413C203.96 60.9813 201.09 63.7013 197.64 63.6213C202.06 63.6213 206.34 62.0813 209.74 59.2613C216.86 53.4113 217.86 42.9413 211.98 35.8613C211.41 35.1713 210.79 34.5313 210.11 33.9513" fill="#27272D" style="fill:#27272D;fill:color(display-p3 0.1529 0.1529 0.1765);fill-opacity:1;"/>
<path d="M215.43 0.00126648C215.43 0.0612665 193.79 0.00126648 193.79 0.00126648C193.79 0.00126648 204.02 19.2413 204.05 19.3513C210.67 15.9613 215.43 6.93127 215.43 0.00126648Z" fill="#27272D" style="fill:#27272D;fill:color(display-p3 0.1529 0.1529 0.1765);fill-opacity:1;"/>
<path d="M165.68 63.7213C165.68 63.6713 187.32 63.7213 187.32 63.7213C187.32 63.7213 177.09 44.4813 177.06 44.3713C170.44 47.7613 165.68 56.7913 165.68 63.7113" fill="#27272D" style="fill:#27272D;fill:color(display-p3 0.1529 0.1529 0.1765);fill-opacity:1;"/>
<path d="M138.04 29.2613L138.11 29.1813H122.33V0.0312653H105.68V62.9413C109.04 64.1613 122.3 58.6913 122.3 44.8613V34.4013H130.69C135.2 34.4013 137.45 31.6913 138.04 29.2513" fill="#27272D" style="fill:#27272D;fill:color(display-p3 0.1529 0.1529 0.1765);fill-opacity:1;"/>
<path d="M136.94 44.3713C136.94 44.4813 126.68 63.7113 126.68 63.7113C126.68 63.7113 148.33 63.6713 148.33 63.7113C148.33 56.8013 143.56 47.7613 136.95 44.3713" fill="#27272D" style="fill:#27272D;fill:color(display-p3 0.1529 0.1529 0.1765);fill-opacity:1;"/>
<path d="M148.32 0.00126648C148.32 0.0612665 126.67 0.00126648 126.67 0.00126648C126.67 0.00126648 136.91 19.2413 136.93 19.3513C143.55 15.9613 148.31 6.93127 148.31 0.00126648" fill="#27272D" style="fill:#27272D;fill:color(display-p3 0.1529 0.1529 0.1765);fill-opacity:1;"/>
</svg>
